<svg width="208" height="34" viewBox="0 0 208 34" fill="none" xmlns="http://www.w3.org/2000/svg">
<path d="M8.756 27L0.468 7.4H7.58L14.328 23.948H10.1L17.044 7.4H23.54L15.252 27H8.756ZM24.1976 27V7.4H30.8056V27H24.1976ZM38.2426 27V12.524H32.5026V7.4H50.5906V12.524H44.8506V27H38.2426ZM58.3549 14.68H67.0909V19.44H58.3549V14.68ZM58.8029 22.016H68.6029V27H52.3069V7.4H68.2389V12.384H58.8029V22.016ZM74.0802 27.28C73.0349 27.28 72.1576 26.944 71.4482 26.272C70.7389 25.5813 70.3842 24.704 70.3842 23.64C70.3842 22.5573 70.7389 21.6893 71.4482 21.036C72.1576 20.3827 73.0349 20.056 74.0802 20.056C75.1256 20.056 76.0029 20.3827 76.7122 21.036C77.4216 21.6893 77.7762 22.5573 77.7762 23.64C77.7762 24.704 77.4216 25.5813 76.7122 26.272C76.0029 26.944 75.1256 27.28 74.0802 27.28Z" fill="#FF8C00"/>
<path d="M86.9801 27.224C85.4868 27.224 84.0588 27 82.6961 26.552C81.3335 26.0853 80.2601 25.488 79.4761 24.76L80.5121 22.576C81.2588 23.2293 82.2108 23.7707 83.3681 24.2C84.5255 24.6293 85.7295 24.844 86.9801 24.844C88.1188 24.844 89.0428 24.7133 89.7521 24.452C90.4615 24.1907 90.9841 23.836 91.3201 23.388C91.6561 22.9213 91.8241 22.3987 91.8241 21.82C91.8241 21.148 91.6001 20.6067 91.1521 20.196C90.7228 19.7853 90.1535 19.4587 89.4441 19.216C88.7535 18.9547 87.9881 18.7307 87.1481 18.544C86.3081 18.3573 85.4588 18.1427 84.6001 17.9C83.7601 17.6387 82.9855 17.312 82.2761 16.92C81.5855 16.528 81.0255 16.0053 80.5961 15.352C80.1668 14.68 79.9521 13.8213 79.9521 12.776C79.9521 11.768 80.2135 10.844 80.7361 10.004C81.2775 9.14533 82.0988 8.464 83.2001 7.96C84.3201 7.43733 85.7388 7.176 87.4561 7.176C88.5948 7.176 89.7241 7.32533 90.8441 7.624C91.9641 7.92267 92.9348 8.352 93.7561 8.912L92.8321 11.152C91.9921 10.592 91.1055 10.1907 90.1721 9.948C89.2388 9.68667 88.3335 9.556 87.4561 9.556C86.3548 9.556 85.4495 9.696 84.7401 9.976C84.0308 10.256 83.5081 10.6293 83.1721 11.096C82.8548 11.5627 82.6961 12.0853 82.6961 12.664C82.6961 13.3547 82.9108 13.9053 83.3401 14.316C83.7881 14.7267 84.3575 15.0533 85.0481 15.296C85.7575 15.5387 86.5321 15.7627 87.3721 15.968C88.2121 16.1547 89.0521 16.3693 89.8921 16.612C90.7508 16.8547 91.5255 17.172 92.2161 17.564C92.9255 17.956 93.4948 18.4787 93.9241 19.132C94.3535 19.7853 94.5681 20.6253 94.5681 21.652C94.5681 22.6413 94.2975 23.5653 93.7561 24.424C93.2148 25.264 92.3748 25.9453 91.2361 26.468C90.1161 26.972 88.6975 27.224 86.9801 27.224ZM102.277 27V9.836H95.5573V7.4H111.769V9.836H105.049V27H102.277ZM110.867 27L119.743 7.4H122.515L131.419 27H128.479L120.555 8.968H121.675L113.751 27H110.867ZM114.647 22.1L115.403 19.86H126.435L127.247 22.1H114.647ZM134.342 27V7.4H141.986C143.704 7.4 145.169 7.67067 146.382 8.212C147.596 8.75333 148.529 9.53733 149.182 10.564C149.836 11.5907 150.162 12.8133 150.162 14.232C150.162 15.6507 149.836 16.8733 149.182 17.9C148.529 18.908 147.596 19.6827 146.382 20.224C145.169 20.7653 143.704 21.036 141.986 21.036H135.882L137.142 19.748V27H134.342ZM147.446 27L142.462 19.888H145.458L150.498 27H147.446ZM137.142 20.028L135.882 18.656H141.902C143.694 18.656 145.048 18.2733 145.962 17.508C146.896 16.724 147.362 15.632 147.362 14.232C147.362 12.832 146.896 11.7493 145.962 10.984C145.048 10.2187 143.694 9.836 141.902 9.836H135.882L137.142 8.436V20.028ZM158.305 27V9.836H151.585V7.4H167.797V9.836H161.077V27H158.305ZM173.394 15.856H183.474V18.236H173.394V15.856ZM173.646 24.564H185.07V27H170.846V7.4H184.678V9.836H173.646V24.564ZM189.604 27V7.4H197.248C198.965 7.4 200.431 7.67067 201.644 8.212C202.857 8.75333 203.791 9.53733 204.444 10.564C205.097 11.5907 205.424 12.8133 205.424 14.232C205.424 15.6507 205.097 16.8733 204.444 17.9C203.791 18.908 202.857 19.6827 201.644 20.224C200.431 20.7653 198.965 21.036 197.248 21.036H191.144L192.404 19.748V27H189.604ZM202.708 27L197.724 19.888H200.72L205.76 27H202.708ZM192.404 20.028L191.144 18.656H197.164C198.956 18.656 200.309 18.2733 201.224 17.508C202.157 16.724 202.624 15.632 202.624 14.232C202.624 12.832 202.157 11.7493 201.224 10.984C200.309 10.2187 198.956 9.836 197.164 9.836H191.144L192.404 8.436V20.028Z" fill="#333333"/>
</svg>
