<svg width="163" height="24" viewBox="0 0 163 24" fill="none" xmlns="http://www.w3.org/2000/svg">
<path d="M17.26 4.88C18.86 4.88 20.1067 5.34 21 6.26C21.8933 7.18 22.34 8.51333 22.34 10.26V19H20.88V10.3C20.88 8.94 20.5333 7.92 19.84 7.24C19.16 6.54667 18.2267 6.2 17.04 6.2C15.7867 6.2 14.8067 6.56667 14.1 7.3C13.3933 8.02 13.04 9.12667 13.04 10.62V19H11.58V10.3C11.58 8.94 11.2467 7.92 10.58 7.24C9.91333 6.54667 8.98667 6.2 7.8 6.2C6.53333 6.2 5.54 6.56667 4.82 7.3C4.11333 8.02 3.76 9.12667 3.76 10.62V19H2.28V5H3.7V7.34C4.08667 6.54 4.66 5.93333 5.42 5.52C6.18 5.09333 7.08 4.88 8.12 4.88C9.21333 4.88 10.1467 5.11333 10.92 5.58C11.7067 6.03333 12.2733 6.67333 12.62 7.5C13.02 6.64667 13.62 6 14.42 5.56C15.2333 5.10667 16.18 4.88 17.26 4.88ZM36.3517 19L33.1517 14.5C32.7917 14.54 32.4184 14.56 32.0317 14.56H28.2717V19H26.7917V5H32.0317C33.8184 5 35.2184 5.42667 36.2317 6.28C37.2451 7.13333 37.7517 8.30667 37.7517 9.8C37.7517 10.8933 37.4717 11.82 36.9117 12.58C36.3651 13.3267 35.5784 13.8667 34.5517 14.2L37.9717 19H36.3517ZM31.9917 13.3C33.3784 13.3 34.4384 12.9933 35.1717 12.38C35.9051 11.7667 36.2717 10.9067 36.2717 9.8C36.2717 8.66667 35.9051 7.8 35.1717 7.2C34.4384 6.58667 33.3784 6.28 31.9917 6.28H28.2717V13.3H31.9917ZM47.4048 4.88C49.0848 4.88 50.3982 5.38 51.3448 6.38C52.3048 7.38 52.7848 8.80667 52.7848 10.66V19H51.3048V10.7C51.3048 9.22 50.9382 8.1 50.2048 7.34C49.4715 6.58 48.4448 6.2 47.1248 6.2C45.7382 6.2 44.6582 6.60667 43.8848 7.42C43.1115 8.22 42.7248 9.42667 42.7248 11.04V19H41.2448V5H42.6648V7.36C43.5582 5.70667 45.1382 4.88 47.4048 4.88ZM61.5614 12.42L58.7014 15.32V19H57.2214V5H58.7014V13.46L66.9214 5H68.6214L62.5614 11.34L69.0414 19H67.2814L61.5614 12.42ZM77.0523 19.12C75.6657 19.12 74.4057 18.8133 73.2723 18.2C72.1523 17.5733 71.2723 16.72 70.6323 15.64C70.0057 14.56 69.6923 13.3467 69.6923 12C69.6923 10.6533 70.0057 9.44 70.6323 8.36C71.2723 7.28 72.1523 6.43333 73.2723 5.82C74.4057 5.19333 75.6657 4.88 77.0523 4.88C78.439 4.88 79.6857 5.18667 80.7923 5.8C81.9123 6.41333 82.7923 7.26667 83.4323 8.36C84.0723 9.44 84.3923 10.6533 84.3923 12C84.3923 13.3467 84.0723 14.5667 83.4323 15.66C82.7923 16.74 81.9123 17.5867 80.7923 18.2C79.6857 18.8133 78.439 19.12 77.0523 19.12ZM77.0523 17.8C78.159 17.8 79.159 17.5533 80.0523 17.06C80.9457 16.5533 81.6457 15.86 82.1523 14.98C82.659 14.0867 82.9123 13.0933 82.9123 12C82.9123 10.9067 82.659 9.92 82.1523 9.04C81.6457 8.14667 80.9457 7.45333 80.0523 6.96C79.159 6.45333 78.159 6.2 77.0523 6.2C75.9457 6.2 74.939 6.45333 74.0323 6.96C73.139 7.45333 72.4323 8.14667 71.9123 9.04C71.4057 9.92 71.1523 10.9067 71.1523 12C71.1523 13.0933 71.4057 14.0867 71.9123 14.98C72.4323 15.86 73.139 16.5533 74.0323 17.06C74.939 17.5533 75.9457 17.8 77.0523 17.8ZM87.1591 19.1C86.8657 19.1 86.6124 18.9933 86.3991 18.78C86.1991 18.5667 86.0991 18.3067 86.0991 18C86.0991 17.6933 86.1991 17.44 86.3991 17.24C86.6124 17.0267 86.8657 16.92 87.1591 16.92C87.4524 16.92 87.7057 17.0267 87.9191 17.24C88.1324 17.44 88.2391 17.6933 88.2391 18C88.2391 18.3067 88.1324 18.5667 87.9191 18.78C87.7057 18.9933 87.4524 19.1 87.1591 19.1Z" fill="#393939"/>
<path d="M96.26 19.24C95.1533 19.24 94.08 19.0933 93.04 18.8C92.0133 18.4933 91.1867 18.1 90.56 17.62L91.66 15.18C92.26 15.62 92.9733 15.9733 93.8 16.24C94.6267 16.5067 95.4533 16.64 96.28 16.64C97.2 16.64 97.88 16.5067 98.32 16.24C98.76 15.96 98.98 15.5933 98.98 15.14C98.98 14.8067 98.8467 14.5333 98.58 14.32C98.3267 14.0933 97.9933 13.9133 97.58 13.78C97.18 13.6467 96.6333 13.5 95.94 13.34C94.8733 13.0867 94 12.8333 93.32 12.58C92.64 12.3267 92.0533 11.92 91.56 11.36C91.08 10.8 90.84 10.0533 90.84 9.12C90.84 8.30667 91.06 7.57333 91.5 6.92C91.94 6.25333 92.6 5.72667 93.48 5.34C94.3733 4.95333 95.46 4.76 96.74 4.76C97.6333 4.76 98.5067 4.86667 99.36 5.08C100.213 5.29333 100.96 5.6 101.6 6L100.6 8.46C99.3067 7.72667 98.0133 7.36 96.72 7.36C95.8133 7.36 95.14 7.50667 94.7 7.8C94.2733 8.09333 94.06 8.48 94.06 8.96C94.06 9.44 94.3067 9.8 94.8 10.04C95.3067 10.2667 96.0733 10.4933 97.1 10.72C98.1667 10.9733 99.04 11.2267 99.72 11.48C100.4 11.7333 100.98 12.1333 101.46 12.68C101.953 13.2267 102.2 13.9667 102.2 14.9C102.2 15.7 101.973 16.4333 101.52 17.1C101.08 17.7533 100.413 18.2733 99.52 18.66C98.6267 19.0467 97.54 19.24 96.26 19.24ZM110.674 18.48C110.367 18.7067 109.987 18.88 109.534 19C109.094 19.1067 108.634 19.16 108.154 19.16C106.861 19.16 105.867 18.8333 105.174 18.18C104.481 17.5267 104.134 16.5667 104.134 15.3V5.86H107.254V8.48H109.914V10.88H107.254V15.26C107.254 15.7133 107.367 16.0667 107.594 16.32C107.821 16.56 108.147 16.68 108.574 16.68C109.054 16.68 109.481 16.5467 109.854 16.28L110.674 18.48ZM123.024 8.24V19H120.044V17.76C119.271 18.6933 118.151 19.16 116.684 19.16C115.671 19.16 114.751 18.9333 113.924 18.48C113.111 18.0267 112.471 17.38 112.004 16.54C111.537 15.7 111.304 14.7267 111.304 13.62C111.304 12.5133 111.537 11.54 112.004 10.7C112.471 9.86 113.111 9.21333 113.924 8.76C114.751 8.30667 115.671 8.08 116.684 8.08C118.057 8.08 119.131 8.51333 119.904 9.38V8.24H123.024ZM117.224 16.6C118.011 16.6 118.664 16.3333 119.184 15.8C119.704 15.2533 119.964 14.5267 119.964 13.62C119.964 12.7133 119.704 11.9933 119.184 11.46C118.664 10.9133 118.011 10.64 117.224 10.64C116.424 10.64 115.764 10.9133 115.244 11.46C114.724 11.9933 114.464 12.7133 114.464 13.62C114.464 14.5267 114.724 15.2533 115.244 15.8C115.764 16.3333 116.424 16.6 117.224 16.6ZM128.893 9.66C129.266 9.14 129.766 8.74667 130.393 8.48C131.033 8.21333 131.766 8.08 132.593 8.08V10.96C132.246 10.9333 132.013 10.92 131.893 10.92C130.999 10.92 130.299 11.1733 129.793 11.68C129.286 12.1733 129.033 12.92 129.033 13.92V19H125.913V8.24H128.893V9.66ZM140.928 18.48C140.621 18.7067 140.241 18.88 139.788 19C139.348 19.1067 138.888 19.16 138.408 19.16C137.114 19.16 136.121 18.8333 135.428 18.18C134.734 17.5267 134.388 16.5667 134.388 15.3V5.86H137.508V8.48H140.168V10.88H137.508V15.26C137.508 15.7133 137.621 16.0667 137.848 16.32C138.074 16.56 138.401 16.68 138.828 16.68C139.308 16.68 139.734 16.5467 140.108 16.28L140.928 18.48ZM147.778 16.66C148.338 16.66 148.831 16.58 149.258 16.42C149.698 16.2467 150.105 15.98 150.478 15.62L152.138 17.42C151.125 18.58 149.645 19.16 147.698 19.16C146.485 19.16 145.411 18.9267 144.478 18.46C143.545 17.98 142.825 17.32 142.318 16.48C141.811 15.64 141.558 14.6867 141.558 13.62C141.558 12.5667 141.805 11.62 142.298 10.78C142.805 9.92667 143.491 9.26667 144.358 8.8C145.238 8.32 146.225 8.08 147.318 8.08C148.345 8.08 149.278 8.3 150.118 8.74C150.958 9.16667 151.625 9.79333 152.118 10.62C152.625 11.4333 152.878 12.4 152.878 13.52L144.918 15.06C145.145 15.5933 145.498 15.9933 145.978 16.26C146.471 16.5267 147.071 16.66 147.778 16.66ZM147.318 10.44C146.531 10.44 145.891 10.6933 145.398 11.2C144.905 11.7067 144.645 12.4067 144.618 13.3L149.858 12.28C149.711 11.72 149.411 11.2733 148.958 10.94C148.505 10.6067 147.958 10.44 147.318 10.44ZM157.955 9.66C158.328 9.14 158.828 8.74667 159.455 8.48C160.095 8.21333 160.828 8.08 161.655 8.08V10.96C161.308 10.9333 161.075 10.92 160.955 10.92C160.062 10.92 159.362 11.1733 158.855 11.68C158.348 12.1733 158.095 12.92 158.095 13.92V19H154.975V8.24H157.955V9.66Z" fill="#393939"/>
</svg>
